<?xml version="1.0" encoding="UTF-8"?>
<!-- Generator: Adobe Illustrator 14.0.0, SVG Export Plug-In . SVG Version: 6.00 Build 43363)  -->
<!DOCTYPE svg PUBLIC "-//W3C//DTD SVG 1.1//EN" "http://www.w3.org/Graphics/SVG/1.1/DTD/svg11.dtd">
<svg version="1.1" id="Layer_1" xmlns="http://www.w3.org/2000/svg" xmlns:xlink="http://www.w3.org/1999/xlink" x="0px" y="0px" width="432px" height="423px" viewBox="0 0 432 423" enable-background="new 0 0 432 423" xml:space="preserve">
<rect x="60.143" y="79.102" transform="matrix(0.7071 -0.7071 0.7071 0.7071 -72.1313 147.3273)" fill="#7D7D7D" width="163.265" height="163.265"/>
<path fill="#484748" d="M71.027,202.707c0,0-46.259,114.286,141.497,114.286s56.31,35.09,56.31,35.09S5.721,353.048,71.027,202.707z  "/>
<path fill="#7D7D7D" d="M164.717,79.385c0,0,263.113-0.965,197.807,149.375c0,0,46.258-114.285-141.497-114.285  C33.271,114.475,164.717,79.385,164.717,79.385"/>
<rect x="210.143" y="179.102" transform="matrix(0.7071 -0.7071 0.7071 0.7071 -98.9082 282.6819)" fill="#484748" width="163.265" height="163.265"/>
</svg>